<svg width="260" height="100" viewBox="0 0 260 100" fill="none" xmlns="http://www.w3.org/2000/svg">
<path d="M24.1467 39.832H29.5227V43H20.0427V26.152H24.1467V39.832ZM44.7042 29.608V43H40.6002V41.176C40.1842 41.768 39.6162 42.248 38.8962 42.616C38.1922 42.968 37.4082 43.144 36.5442 43.144C35.5202 43.144 34.6162 42.92 33.8322 42.472C33.0482 42.008 32.4402 41.344 32.0082 40.48C31.5762 39.616 31.3602 38.6 31.3602 37.432V29.608H35.4402V36.88C35.4402 37.776 35.6722 38.472 36.1362 38.968C36.6002 39.464 37.2242 39.712 38.0082 39.712C38.8082 39.712 39.4402 39.464 39.9042 38.968C40.3682 38.472 40.6002 37.776 40.6002 36.88V29.608H44.7042ZM46.8361 36.304C46.8361 34.912 47.1161 33.696 47.6761 32.656C48.2521 31.616 49.0441 30.816 50.0521 30.256C51.0761 29.696 52.2441 29.416 53.5561 29.416C55.2361 29.416 56.6361 29.856 57.7561 30.736C58.8921 31.616 59.6361 32.856 59.9881 34.456H55.6201C55.2521 33.432 54.5401 32.92 53.4841 32.92C52.7321 32.92 52.1321 33.216 51.6841 33.808C51.2361 34.384 51.0121 35.216 51.0121 36.304C51.0121 37.392 51.2361 38.232 51.6841 38.824C52.1321 39.4 52.7321 39.688 53.4841 39.688C54.5401 39.688 55.2521 39.176 55.6201 38.152H59.9881C59.6361 39.72 58.8921 40.952 57.7561 41.848C56.6201 42.744 55.2201 43.192 53.5561 43.192C52.2441 43.192 51.0761 42.912 50.0521 42.352C49.0441 41.792 48.2521 40.992 47.6761 39.952C47.1161 38.912 46.8361 37.696 46.8361 36.304ZM61.3673 36.28C61.3673 34.904 61.6233 33.696 62.1353 32.656C62.6633 31.616 63.3753 30.816 64.2713 30.256C65.1673 29.696 66.1673 29.416 67.2713 29.416C68.2153 29.416 69.0393 29.608 69.7433 29.992C70.4633 30.376 71.0153 30.88 71.3993 31.504V29.608H75.5033V43H71.3993V41.104C70.9993 41.728 70.4393 42.232 69.7193 42.616C69.0153 43 68.1913 43.192 67.2473 43.192C66.1593 43.192 65.1673 42.912 64.2713 42.352C63.3753 41.776 62.6633 40.968 62.1353 39.928C61.6233 38.872 61.3673 37.656 61.3673 36.28ZM71.3993 36.304C71.3993 35.28 71.1113 34.472 70.5353 33.88C69.9753 33.288 69.2873 32.992 68.4713 32.992C67.6553 32.992 66.9593 33.288 66.3833 33.88C65.8233 34.456 65.5433 35.256 65.5433 36.28C65.5433 37.304 65.8233 38.12 66.3833 38.728C66.9593 39.32 67.6553 39.616 68.4713 39.616C69.2873 39.616 69.9753 39.32 70.5353 38.728C71.1113 38.136 71.3993 37.328 71.3993 36.304ZM83.9204 43.192C82.7524 43.192 81.7124 42.992 80.8004 42.592C79.8884 42.192 79.1684 41.648 78.6404 40.96C78.1124 40.256 77.8164 39.472 77.7524 38.608H81.8084C81.8564 39.072 82.0724 39.448 82.4564 39.736C82.8404 40.024 83.3124 40.168 83.8724 40.168C84.3844 40.168 84.7764 40.072 85.0484 39.88C85.3364 39.672 85.4804 39.408 85.4804 39.088C85.4804 38.704 85.2804 38.424 84.8804 38.248C84.4804 38.056 83.8324 37.848 82.9364 37.624C81.9764 37.4 81.1764 37.168 80.5364 36.928C79.8964 36.672 79.3444 36.28 78.8804 35.752C78.4164 35.208 78.1844 34.48 78.1844 33.568C78.1844 32.8 78.3924 32.104 78.8084 31.48C79.2404 30.84 79.8644 30.336 80.6804 29.968C81.5124 29.6 82.4964 29.416 83.6324 29.416C85.3124 29.416 86.6324 29.832 87.5924 30.664C88.5684 31.496 89.1284 32.6 89.2724 33.976H85.4804C85.4164 33.512 85.2084 33.144 84.8564 32.872C84.5204 32.6 84.0724 32.464 83.5124 32.464C83.0324 32.464 82.6644 32.56 82.4084 32.752C82.1524 32.928 82.0244 33.176 82.0244 33.496C82.0244 33.88 82.2244 34.168 82.6244 34.36C83.0404 34.552 83.6804 34.744 84.5444 34.936C85.5364 35.192 86.3444 35.448 86.9684 35.704C87.5924 35.944 88.1364 36.344 88.6004 36.904C89.0804 37.448 89.3284 38.184 89.3444 39.112C89.3444 39.896 89.1204 40.6 88.6724 41.224C88.2404 41.832 87.6084 42.312 86.7764 42.664C85.9604 43.016 85.0084 43.192 83.9204 43.192ZM116.021 26.152V43H111.917V32.896L108.149 43H104.837L101.045 32.872V43H96.9411V26.152H101.789L106.517 37.816L111.197 26.152H116.021ZM118.156 36.28C118.156 34.904 118.412 33.696 118.924 32.656C119.452 31.616 120.164 30.816 121.06 30.256C121.956 29.696 122.956 29.416 124.06 29.416C125.004 29.416 125.828 29.608 126.532 29.992C127.252 30.376 127.804 30.88 128.188 31.504V29.608H132.292V43H128.188V41.104C127.788 41.728 127.228 42.232 126.508 42.616C125.804 43 124.98 43.192 124.036 43.192C122.948 43.192 121.956 42.912 121.06 42.352C120.164 41.776 119.452 40.968 118.924 39.928C118.412 38.872 118.156 37.656 118.156 36.28ZM128.188 36.304C128.188 35.28 127.9 34.472 127.324 33.88C126.764 33.288 126.076 32.992 125.26 32.992C124.444 32.992 123.748 33.288 123.172 33.88C122.612 34.456 122.332 35.256 122.332 36.28C122.332 37.304 122.612 38.12 123.172 38.728C123.748 39.32 124.444 39.616 125.26 39.616C126.076 39.616 126.764 39.32 127.324 38.728C127.9 38.136 128.188 37.328 128.188 36.304ZM139.365 31.84C139.845 31.104 140.445 30.528 141.165 30.112C141.885 29.68 142.685 29.464 143.565 29.464V33.808H142.437C141.413 33.808 140.645 34.032 140.133 34.48C139.621 34.912 139.365 35.68 139.365 36.784V43H135.261V29.608H139.365V31.84ZM144.711 36.304C144.711 34.912 144.991 33.696 145.551 32.656C146.127 31.616 146.919 30.816 147.927 30.256C148.951 29.696 150.119 29.416 151.431 29.416C153.111 29.416 154.511 29.856 155.631 30.736C156.767 31.616 157.511 32.856 157.863 34.456H153.495C153.127 33.432 152.415 32.92 151.359 32.92C150.607 32.92 150.007 33.216 149.559 33.808C149.111 34.384 148.887 35.216 148.887 36.304C148.887 37.392 149.111 38.232 149.559 38.824C150.007 39.4 150.607 39.688 151.359 39.688C152.415 39.688 153.127 39.176 153.495 38.152H157.863C157.511 39.72 156.767 40.952 155.631 41.848C154.495 42.744 153.095 43.192 151.431 43.192C150.119 43.192 148.951 42.912 147.927 42.352C146.919 41.792 146.127 40.992 145.551 39.952C144.991 38.912 144.711 37.696 144.711 36.304ZM168.29 29.464C169.826 29.464 171.058 29.976 171.986 31C172.914 32.008 173.378 33.4 173.378 35.176V43H169.298V35.728C169.298 34.832 169.066 34.136 168.602 33.64C168.138 33.144 167.514 32.896 166.73 32.896C165.946 32.896 165.322 33.144 164.858 33.64C164.394 34.136 164.162 34.832 164.162 35.728V43H160.058V25.24H164.162V31.408C164.578 30.816 165.146 30.344 165.866 29.992C166.586 29.64 167.394 29.464 168.29 29.464ZM188.854 36.088C188.854 36.472 188.83 36.872 188.782 37.288H179.494C179.558 38.12 179.822 38.76 180.286 39.208C180.766 39.64 181.35 39.856 182.038 39.856C183.062 39.856 183.774 39.424 184.174 38.56H188.542C188.318 39.44 187.91 40.232 187.318 40.936C186.742 41.64 186.014 42.192 185.134 42.592C184.254 42.992 183.27 43.192 182.182 43.192C180.87 43.192 179.702 42.912 178.678 42.352C177.654 41.792 176.854 40.992 176.278 39.952C175.702 38.912 175.414 37.696 175.414 36.304C175.414 34.912 175.694 33.696 176.254 32.656C176.83 31.616 177.63 30.816 178.654 30.256C179.678 29.696 180.854 29.416 182.182 29.416C183.478 29.416 184.63 29.688 185.638 30.232C186.646 30.776 187.43 31.552 187.99 32.56C188.566 33.568 188.854 34.744 188.854 36.088ZM184.654 35.008C184.654 34.304 184.414 33.744 183.934 33.328C183.454 32.912 182.854 32.704 182.134 32.704C181.446 32.704 180.862 32.904 180.382 33.304C179.918 33.704 179.63 34.272 179.518 35.008H184.654ZM196.467 43.192C195.299 43.192 194.259 42.992 193.347 42.592C192.435 42.192 191.715 41.648 191.187 40.96C190.659 40.256 190.363 39.472 190.299 38.608H194.355C194.403 39.072 194.619 39.448 195.003 39.736C195.387 40.024 195.859 40.168 196.419 40.168C196.931 40.168 197.323 40.072 197.595 39.88C197.883 39.672 198.027 39.408 198.027 39.088C198.027 38.704 197.827 38.424 197.427 38.248C197.027 38.056 196.379 37.848 195.483 37.624C194.523 37.4 193.723 37.168 193.083 36.928C192.443 36.672 191.891 36.28 191.427 35.752C190.963 35.208 190.731 34.48 190.731 33.568C190.731 32.8 190.939 32.104 191.355 31.48C191.787 30.84 192.411 30.336 193.227 29.968C194.059 29.6 195.043 29.416 196.179 29.416C197.859 29.416 199.179 29.832 200.139 30.664C201.115 31.496 201.675 32.6 201.819 33.976H198.027C197.963 33.512 197.755 33.144 197.403 32.872C197.067 32.6 196.619 32.464 196.059 32.464C195.579 32.464 195.211 32.56 194.955 32.752C194.699 32.928 194.571 33.176 194.571 33.496C194.571 33.88 194.771 34.168 195.171 34.36C195.587 34.552 196.227 34.744 197.091 34.936C198.083 35.192 198.891 35.448 199.515 35.704C200.139 35.944 200.683 36.344 201.147 36.904C201.627 37.448 201.875 38.184 201.891 39.112C201.891 39.896 201.667 40.6 201.219 41.224C200.787 41.832 200.155 42.312 199.323 42.664C198.507 43.016 197.555 43.192 196.467 43.192ZM210.498 43.192C209.186 43.192 208.002 42.912 206.946 42.352C205.906 41.792 205.082 40.992 204.474 39.952C203.882 38.912 203.586 37.696 203.586 36.304C203.586 34.928 203.89 33.72 204.498 32.68C205.106 31.624 205.938 30.816 206.994 30.256C208.05 29.696 209.234 29.416 210.546 29.416C211.858 29.416 213.042 29.696 214.098 30.256C215.154 30.816 215.986 31.624 216.594 32.68C217.202 33.72 217.506 34.928 217.506 36.304C217.506 37.68 217.194 38.896 216.57 39.952C215.962 40.992 215.122 41.792 214.05 42.352C212.994 42.912 211.81 43.192 210.498 43.192ZM210.498 39.64C211.282 39.64 211.946 39.352 212.49 38.776C213.05 38.2 213.33 37.376 213.33 36.304C213.33 35.232 213.058 34.408 212.514 33.832C211.986 33.256 211.33 32.968 210.546 32.968C209.746 32.968 209.082 33.256 208.554 33.832C208.026 34.392 207.762 35.216 207.762 36.304C207.762 37.376 208.018 38.2 208.53 38.776C209.058 39.352 209.714 39.64 210.498 39.64ZM227.843 29.464C229.411 29.464 230.659 29.976 231.587 31C232.531 32.008 233.003 33.4 233.003 35.176V43H228.923V35.728C228.923 34.832 228.691 34.136 228.227 33.64C227.763 33.144 227.139 32.896 226.355 32.896C225.571 32.896 224.947 33.144 224.483 33.64C224.019 34.136 223.787 34.832 223.787 35.728V43H219.683V29.608H223.787V31.384C224.203 30.792 224.763 30.328 225.467 29.992C226.171 29.64 226.963 29.464 227.843 29.464ZM237.919 28.216C237.199 28.216 236.607 28.008 236.143 27.592C235.695 27.16 235.471 26.632 235.471 26.008C235.471 25.368 235.695 24.84 236.143 24.424C236.607 23.992 237.199 23.776 237.919 23.776C238.623 23.776 239.199 23.992 239.647 24.424C240.111 24.84 240.343 25.368 240.343 26.008C240.343 26.632 240.111 27.16 239.647 27.592C239.199 28.008 238.623 28.216 237.919 28.216ZM239.959 29.608V43H235.855V29.608H239.959Z" fill="#fff"/>
<path d="M74.1486 52.832C75.322 52.832 76.3513 53.0613 77.2366 53.52C78.1326 53.9787 78.8206 54.6347 79.3006 55.488C79.7913 56.3307 80.0366 57.312 80.0366 58.432C80.0366 59.552 79.7913 60.5333 79.3006 61.376C78.8206 62.208 78.1326 62.8533 77.2366 63.312C76.3513 63.7707 75.322 64 74.1486 64H70.2446V52.832H74.1486ZM74.0686 62.096C75.242 62.096 76.1486 61.776 76.7886 61.136C77.4286 60.496 77.7486 59.5947 77.7486 58.432C77.7486 57.2693 77.4286 56.3627 76.7886 55.712C76.1486 55.0507 75.242 54.72 74.0686 54.72H72.4846V62.096H74.0686ZM89.9534 59.376C89.9534 59.696 89.932 59.984 89.8894 60.24H83.4094C83.4627 60.88 83.6867 61.3813 84.0814 61.744C84.476 62.1067 84.9614 62.288 85.5374 62.288C86.3694 62.288 86.9614 61.9307 87.3134 61.216H89.7294C89.4734 62.0693 88.9827 62.7733 88.2574 63.328C87.532 63.872 86.6414 64.144 85.5854 64.144C84.732 64.144 83.964 63.9573 83.2814 63.584C82.6094 63.2 82.0814 62.6613 81.6974 61.968C81.324 61.2747 81.1374 60.4747 81.1374 59.568C81.1374 58.6507 81.324 57.8453 81.6974 57.152C82.0707 56.4587 82.5934 55.9253 83.2654 55.552C83.9374 55.1787 84.7107 54.992 85.5854 54.992C86.428 54.992 87.18 55.1733 87.8414 55.536C88.5134 55.8987 89.0307 56.416 89.3934 57.088C89.7667 57.7493 89.9534 58.512 89.9534 59.376ZM87.6334 58.736C87.6227 58.16 87.4147 57.7013 87.0094 57.36C86.604 57.008 86.108 56.832 85.5214 56.832C84.9667 56.832 84.4974 57.0027 84.1134 57.344C83.74 57.6747 83.5107 58.1387 83.4254 58.736H87.6334ZM94.9804 64.144C94.255 64.144 93.6044 64.016 93.0284 63.76C92.4524 63.4933 91.9937 63.136 91.6524 62.688C91.3217 62.24 91.1404 61.744 91.1084 61.2H93.3644C93.407 61.5413 93.5724 61.824 93.8604 62.048C94.159 62.272 94.527 62.384 94.9644 62.384C95.391 62.384 95.7217 62.2987 95.9564 62.128C96.2017 61.9573 96.3244 61.7387 96.3244 61.472C96.3244 61.184 96.175 60.9707 95.8764 60.832C95.5884 60.6827 95.1244 60.5227 94.4844 60.352C93.823 60.192 93.279 60.0267 92.8524 59.856C92.4364 59.6853 92.0737 59.424 91.7644 59.072C91.4657 58.72 91.3164 58.2453 91.3164 57.648C91.3164 57.1573 91.455 56.7093 91.7324 56.304C92.0204 55.8987 92.4257 55.5787 92.9484 55.344C93.4817 55.1093 94.1057 54.992 94.8204 54.992C95.8764 54.992 96.719 55.2587 97.3484 55.792C97.9777 56.3147 98.3244 57.024 98.3884 57.92H96.2444C96.2124 57.568 96.063 57.2907 95.7964 57.088C95.5404 56.8747 95.1937 56.768 94.7564 56.768C94.351 56.768 94.0364 56.8427 93.8124 56.992C93.599 57.1413 93.4924 57.3493 93.4924 57.616C93.4924 57.9147 93.6417 58.144 93.9404 58.304C94.239 58.4533 94.703 58.608 95.3324 58.768C95.9724 58.928 96.5004 59.0933 96.9164 59.264C97.3324 59.4347 97.6897 59.7013 97.9884 60.064C98.2977 60.416 98.4577 60.8853 98.4684 61.472C98.4684 61.984 98.3244 62.4427 98.0364 62.848C97.759 63.2533 97.3537 63.5733 96.8204 63.808C96.2977 64.032 95.6844 64.144 94.9804 64.144ZM108.547 59.376C108.547 59.696 108.526 59.984 108.483 60.24H102.003C102.056 60.88 102.28 61.3813 102.675 61.744C103.07 62.1067 103.555 62.288 104.131 62.288C104.963 62.288 105.555 61.9307 105.907 61.216H108.323C108.067 62.0693 107.576 62.7733 106.851 63.328C106.126 63.872 105.235 64.144 104.179 64.144C103.326 64.144 102.558 63.9573 101.875 63.584C101.203 63.2 100.675 62.6613 100.291 61.968C99.9178 61.2747 99.7311 60.4747 99.7311 59.568C99.7311 58.6507 99.9178 57.8453 100.291 57.152C100.664 56.4587 101.187 55.9253 101.859 55.552C102.531 55.1787 103.304 54.992 104.179 54.992C105.022 54.992 105.774 55.1733 106.435 55.536C107.107 55.8987 107.624 56.416 107.987 57.088C108.36 57.7493 108.547 58.512 108.547 59.376ZM106.227 58.736C106.216 58.16 106.008 57.7013 105.603 57.36C105.198 57.008 104.702 56.832 104.115 56.832C103.56 56.832 103.091 57.0027 102.707 57.344C102.334 57.6747 102.104 58.1387 102.019 58.736H106.227ZM115.094 55.008C116.15 55.008 117.003 55.344 117.654 56.016C118.305 56.6773 118.63 57.6053 118.63 58.8V64H116.39V59.104C116.39 58.4 116.214 57.8613 115.862 57.488C115.51 57.104 115.03 56.912 114.422 56.912C113.803 56.912 113.313 57.104 112.95 57.488C112.598 57.8613 112.422 58.4 112.422 59.104V64H110.182V55.136H112.422V56.24C112.721 55.856 113.099 55.5573 113.558 55.344C114.027 55.12 114.539 55.008 115.094 55.008ZM124.456 61.936L126.696 55.136H129.08L125.8 64H123.08L119.816 55.136H122.216L124.456 61.936ZM134.274 64.144C133.421 64.144 132.653 63.9573 131.97 63.584C131.288 63.2 130.749 62.6613 130.354 61.968C129.97 61.2747 129.778 60.4747 129.778 59.568C129.778 58.6613 129.976 57.8613 130.37 57.168C130.776 56.4747 131.325 55.9413 132.018 55.568C132.712 55.184 133.485 54.992 134.338 54.992C135.192 54.992 135.965 55.184 136.658 55.568C137.352 55.9413 137.896 56.4747 138.29 57.168C138.696 57.8613 138.898 58.6613 138.898 59.568C138.898 60.4747 138.69 61.2747 138.274 61.968C137.869 62.6613 137.314 63.2 136.61 63.584C135.917 63.9573 135.138 64.144 134.274 64.144ZM134.274 62.192C134.68 62.192 135.058 62.096 135.41 61.904C135.773 61.7013 136.061 61.4027 136.274 61.008C136.488 60.6133 136.594 60.1333 136.594 59.568C136.594 58.7253 136.37 58.08 135.922 57.632C135.485 57.1733 134.946 56.944 134.306 56.944C133.666 56.944 133.128 57.1733 132.69 57.632C132.264 58.08 132.05 58.7253 132.05 59.568C132.05 60.4107 132.258 61.0613 132.674 61.52C133.101 61.968 133.634 62.192 134.274 62.192ZM142.782 52.16V64H140.542V52.16H142.782ZM148.691 61.936L150.931 55.136H153.315L150.035 64H147.315L144.051 55.136H146.451L148.691 61.936ZM162.813 59.376C162.813 59.696 162.791 59.984 162.749 60.24H156.269C156.322 60.88 156.546 61.3813 156.941 61.744C157.335 62.1067 157.821 62.288 158.397 62.288C159.229 62.288 159.821 61.9307 160.173 61.216H162.589C162.333 62.0693 161.842 62.7733 161.117 63.328C160.391 63.872 159.501 64.144 158.445 64.144C157.591 64.144 156.823 63.9573 156.141 63.584C155.469 63.2 154.941 62.6613 154.557 61.968C154.183 61.2747 153.997 60.4747 153.997 59.568C153.997 58.6507 154.183 57.8453 154.557 57.152C154.93 56.4587 155.453 55.9253 156.125 55.552C156.797 55.1787 157.57 54.992 158.445 54.992C159.287 54.992 160.039 55.1733 160.701 55.536C161.373 55.8987 161.89 56.416 162.253 57.088C162.626 57.7493 162.813 58.512 162.813 59.376ZM160.493 58.736C160.482 58.16 160.274 57.7013 159.869 57.36C159.463 57.008 158.967 56.832 158.381 56.832C157.826 56.832 157.357 57.0027 156.973 57.344C156.599 57.6747 156.37 58.1387 156.285 58.736H160.493ZM163.872 59.536C163.872 58.64 164.048 57.8453 164.4 57.152C164.762 56.4587 165.253 55.9253 165.872 55.552C166.49 55.1787 167.178 54.992 167.936 54.992C168.512 54.992 169.061 55.12 169.584 55.376C170.106 55.6213 170.522 55.952 170.832 56.368V52.16H173.104V64H170.832V62.688C170.554 63.1253 170.165 63.4773 169.664 63.744C169.162 64.0107 168.581 64.144 167.92 64.144C167.173 64.144 166.49 63.952 165.872 63.568C165.253 63.184 164.762 62.6453 164.4 61.952C164.048 61.248 163.872 60.4427 163.872 59.536ZM170.848 59.568C170.848 59.024 170.741 58.56 170.528 58.176C170.314 57.7813 170.026 57.4827 169.664 57.28C169.301 57.0667 168.912 56.96 168.496 56.96C168.08 56.96 167.696 57.0613 167.344 57.264C166.992 57.4667 166.704 57.7653 166.48 58.16C166.266 58.544 166.16 59.0027 166.16 59.536C166.16 60.0693 166.266 60.5387 166.48 60.944C166.704 61.3387 166.992 61.6427 167.344 61.856C167.706 62.0693 168.09 62.176 168.496 62.176C168.912 62.176 169.301 62.0747 169.664 61.872C170.026 61.6587 170.314 61.36 170.528 60.976C170.741 60.5813 170.848 60.112 170.848 59.568ZM179.228 64.144C178.374 64.144 177.606 63.9573 176.924 63.584C176.241 63.2 175.702 62.6613 175.308 61.968C174.924 61.2747 174.732 60.4747 174.732 59.568C174.732 58.6613 174.929 57.8613 175.324 57.168C175.729 56.4747 176.278 55.9413 176.972 55.568C177.665 55.184 178.438 54.992 179.292 54.992C180.145 54.992 180.918 55.184 181.612 55.568C182.305 55.9413 182.849 56.4747 183.244 57.168C183.649 57.8613 183.852 58.6613 183.852 59.568C183.852 60.4747 183.644 61.2747 183.227 61.968C182.822 62.6613 182.268 63.2 181.564 63.584C180.87 63.9573 180.092 64.144 179.228 64.144ZM179.228 62.192C179.633 62.192 180.012 62.096 180.364 61.904C180.726 61.7013 181.014 61.4027 181.228 61.008C181.441 60.6133 181.548 60.1333 181.548 59.568C181.548 58.7253 181.324 58.08 180.876 57.632C180.438 57.1733 179.9 56.944 179.26 56.944C178.62 56.944 178.081 57.1733 177.644 57.632C177.217 58.08 177.004 58.7253 177.004 59.568C177.004 60.4107 177.212 61.0613 177.628 61.52C178.054 61.968 178.588 62.192 179.228 62.192ZM187.735 56.512C188.023 56.0427 188.396 55.6747 188.855 55.408C189.324 55.1413 189.857 55.008 190.455 55.008V57.36H189.863C189.159 57.36 188.625 57.5253 188.263 57.856C187.911 58.1867 187.735 58.7627 187.735 59.584V64H185.495V55.136H187.735V56.512ZM99.7422 76.832V78.64H95.0862V81.504H98.6542V83.28H95.0862V88H92.8462V76.832H99.7422ZM109.699 79.136V88H107.443V86.88C107.155 87.264 106.776 87.568 106.307 87.792C105.848 88.0053 105.347 88.112 104.803 88.112C104.109 88.112 103.496 87.968 102.963 87.68C102.429 87.3813 102.008 86.9493 101.699 86.384C101.4 85.808 101.251 85.1253 101.251 84.336V79.136H103.491V84.016C103.491 84.72 103.667 85.264 104.019 85.648C104.371 86.0213 104.851 86.208 105.459 86.208C106.077 86.208 106.563 86.0213 106.915 85.648C107.267 85.264 107.443 84.72 107.443 84.016V79.136H109.699ZM114.149 76.16V88H111.909V76.16H114.149ZM118.602 76.16V88H116.362V76.16H118.602ZM128.019 88.144C127.294 88.144 126.643 88.016 126.067 87.76C125.491 87.4933 125.033 87.136 124.691 86.688C124.361 86.24 124.179 85.744 124.147 85.2H126.403C126.446 85.5413 126.611 85.824 126.899 86.048C127.198 86.272 127.566 86.384 128.003 86.384C128.43 86.384 128.761 86.2987 128.995 86.128C129.241 85.9573 129.363 85.7387 129.363 85.472C129.363 85.184 129.214 84.9707 128.915 84.832C128.627 84.6827 128.163 84.5227 127.523 84.352C126.862 84.192 126.318 84.0267 125.891 83.856C125.475 83.6853 125.113 83.424 124.803 83.072C124.505 82.72 124.355 82.2453 124.355 81.648C124.355 81.1573 124.494 80.7093 124.771 80.304C125.059 79.8987 125.465 79.5787 125.987 79.344C126.521 79.1093 127.145 78.992 127.859 78.992C128.915 78.992 129.758 79.2587 130.387 79.792C131.017 80.3147 131.363 81.024 131.427 81.92H129.283C129.251 81.568 129.102 81.2907 128.835 81.088C128.579 80.8747 128.233 80.768 127.795 80.768C127.39 80.768 127.075 80.8427 126.851 80.992C126.638 81.1413 126.531 81.3493 126.531 81.616C126.531 81.9147 126.681 82.144 126.979 82.304C127.278 82.4533 127.742 82.608 128.371 82.768C129.011 82.928 129.539 83.0933 129.955 83.264C130.371 83.4347 130.729 83.7013 131.027 84.064C131.337 84.416 131.497 84.8853 131.507 85.472C131.507 85.984 131.363 86.4427 131.075 86.848C130.798 87.2533 130.393 87.5733 129.859 87.808C129.337 88.032 128.723 88.144 128.019 88.144ZM135.954 80.976V85.264C135.954 85.5627 136.024 85.7813 136.162 85.92C136.312 86.048 136.557 86.112 136.898 86.112H137.938V88H136.53C134.642 88 133.698 87.0827 133.698 85.248V80.976H132.642V79.136H133.698V76.944H135.954V79.136H137.938V80.976H135.954ZM138.973 83.536C138.973 82.64 139.149 81.8453 139.501 81.152C139.864 80.4587 140.349 79.9253 140.957 79.552C141.576 79.1787 142.264 78.992 143.021 78.992C143.683 78.992 144.259 79.1253 144.749 79.392C145.251 79.6587 145.651 79.9947 145.949 80.4V79.136H148.205V88H145.949V86.704C145.661 87.12 145.261 87.4667 144.749 87.744C144.248 88.0107 143.667 88.144 143.005 88.144C142.259 88.144 141.576 87.952 140.957 87.568C140.349 87.184 139.864 86.6453 139.501 85.952C139.149 85.248 138.973 84.4427 138.973 83.536ZM145.949 83.568C145.949 83.024 145.843 82.56 145.629 82.176C145.416 81.7813 145.128 81.4827 144.765 81.28C144.403 81.0667 144.013 80.96 143.597 80.96C143.181 80.96 142.797 81.0613 142.445 81.264C142.093 81.4667 141.805 81.7653 141.581 82.16C141.368 82.544 141.261 83.0027 141.261 83.536C141.261 84.0693 141.368 84.5387 141.581 84.944C141.805 85.3387 142.093 85.6427 142.445 85.856C142.808 86.0693 143.192 86.176 143.597 86.176C144.013 86.176 144.403 86.0747 144.765 85.872C145.128 85.6587 145.416 85.36 145.629 84.976C145.843 84.5813 145.949 84.112 145.949 83.568ZM149.817 83.568C149.817 82.6507 150.004 81.8507 150.377 81.168C150.75 80.4747 151.268 79.9413 151.929 79.568C152.59 79.184 153.348 78.992 154.201 78.992C155.3 78.992 156.206 79.2693 156.921 79.824C157.646 80.368 158.132 81.136 158.377 82.128H155.961C155.833 81.744 155.614 81.4453 155.305 81.232C155.006 81.008 154.633 80.896 154.185 80.896C153.545 80.896 153.038 81.1307 152.665 81.6C152.292 82.0587 152.105 82.7147 152.105 83.568C152.105 84.4107 152.292 85.0667 152.665 85.536C153.038 85.9947 153.545 86.224 154.185 86.224C155.092 86.224 155.684 85.8187 155.961 85.008H158.377C158.132 85.968 157.646 86.7307 156.921 87.296C156.196 87.8613 155.289 88.144 154.201 88.144C153.348 88.144 152.59 87.9573 151.929 87.584C151.268 87.2 150.75 86.6667 150.377 85.984C150.004 85.2907 149.817 84.4853 149.817 83.568ZM165.266 88L162.258 84.224V88H160.018V76.16H162.258V82.896L165.234 79.136H168.146L164.242 83.584L168.178 88H165.266Z" fill="#fff"/>
</svg>
